<svg width="24" height="24" viewBox="0 0 24 24" fill="none" xmlns="http://www.w3.org/2000/svg">
<circle cx="12" cy="12" r="12" fill="#1A87D9"/>
<path d="M11.3179 12.2579C11.8819 11.2337 12.9659 10.6295 13.5958 9.72316C14.2623 8.77263 13.8888 6.99684 11.9991 6.99684C10.7613 6.99684 10.1534 7.94 9.89701 8.72105L8 7.91789C8.52003 6.34842 9.93364 5 11.9918 5C13.713 5 14.8922 5.78842 15.4928 6.77579C16.0055 7.62316 16.3058 9.20737 15.5148 10.3863C14.6359 11.6905 13.7936 12.0884 13.3395 12.9284C13.1564 13.2674 13.0831 13.4884 13.0831 14.5789H10.9664C10.959 14.0042 10.8712 13.0684 11.3179 12.2579ZM13.464 17.5263C13.464 18.3368 12.8048 19 11.9991 19C11.1934 19 10.5342 18.3368 10.5342 17.5263C10.5342 16.7158 11.1934 16.0526 11.9991 16.0526C12.8048 16.0526 13.464 16.7158 13.464 17.5263Z" fill="white"/>
</svg>
